<?xml version="1.0" encoding="UTF-8" standalone="no"?>
<!-- Created with Inkscape (http://www.inkscape.org/) -->

<svg
   width="161.8mm"
   height="100mm"
   viewBox="0 0 161.8 99.999998"
   version="1.1"
   id="svg2084"
   inkscape:version="1.1.1 (1:1.1+202109281949+c3084ef5ed)"
   sodipodi:docname="celebrate.svg"
   xmlns:inkscape="http://www.inkscape.org/namespaces/inkscape"
   xmlns:sodipodi="http://sodipodi.sourceforge.net/DTD/sodipodi-0.dtd"
   xmlns:xlink="http://www.w3.org/1999/xlink"
   xmlns="http://www.w3.org/2000/svg"
   xmlns:svg="http://www.w3.org/2000/svg">
  <sodipodi:namedview
     id="namedview2086"
     pagecolor="#000000"
     bordercolor="#666666"
     borderopacity="1.0"
     inkscape:pageshadow="2"
     inkscape:pageopacity="0"
     inkscape:pagecheckerboard="0"
     inkscape:document-units="mm"
     showgrid="false"
     inkscape:object-paths="false"
     inkscape:snap-smooth-nodes="false"
     inkscape:snap-bbox="true"
     inkscape:snap-global="false"
     inkscape:snap-object-midpoints="true"
     inkscape:snap-midpoints="true"
     inkscape:object-nodes="true"
     inkscape:snap-center="true"
     inkscape:snap-bbox-edge-midpoints="true"
     inkscape:zoom="1.1009789"
     inkscape:cx="301.09568"
     inkscape:cy="198.45975"
     inkscape:window-width="1848"
     inkscape:window-height="1016"
     inkscape:window-x="72"
     inkscape:window-y="27"
     inkscape:window-maximized="1"
     inkscape:current-layer="layer1" />
  <defs
     id="defs2081" />
  <g
     inkscape:label="Layer 1"
     inkscape:groupmode="layer"
     id="layer1"
     style="display:inline">
    <g
       id="g3516"
       transform="translate(95.533565,-3.0619245)"
       style="fill:#000000;stroke:#d22730">
      <path
         style="fill:#000000;stroke:#d22730;stroke-width:2;stroke-linecap:butt;stroke-linejoin:miter;stroke-miterlimit:4;stroke-dasharray:none;stroke-opacity:1"
         d="M 44.214446,107.11599 44.448608,59.511155"
         id="path2771"
         inkscape:tile-cx="73.811493"
         inkscape:tile-cy="92.941148"
         inkscape:tile-w="0.43439477"
         inkscape:tile-h="34.524435"
         inkscape:tile-x0="73.594296"
         inkscape:tile-y0="75.678931" />
      <path
         style="fill:#000000;stroke:#d22730;stroke-width:2;stroke-linecap:butt;stroke-linejoin:miter;stroke-miterlimit:4;stroke-dasharray:none;stroke-opacity:1"
         d="M 44.214446,107.11599 44.448608,59.511155"
         id="use2806"
         inkscape:tile-x0="73.594296"
         inkscape:tile-y0="75.678931" />
      <path
         style="fill:#000000;stroke:#d22730;stroke-width:2;stroke-linecap:butt;stroke-linejoin:miter;stroke-miterlimit:4;stroke-dasharray:none;stroke-opacity:1"
         d="M 21.657894,90.557576 67.005143,76.069574"
         id="use2808"
         inkscape:tile-x0="73.594296"
         inkscape:tile-y0="75.678931" />
      <path
         style="fill:#000000;stroke:#d22730;stroke-width:2;stroke-linecap:butt;stroke-linejoin:miter;stroke-miterlimit:4;stroke-dasharray:none;stroke-opacity:1"
         d="m 30.435526,63.98819 27.791979,38.65076"
         id="use2810"
         inkscape:tile-x0="73.594296"
         inkscape:tile-y0="75.678931" />
      <path
         style="fill:#000000;stroke:#d22730;stroke-width:2;stroke-linecap:butt;stroke-linejoin:miter;stroke-miterlimit:4;stroke-dasharray:none;stroke-opacity:1"
         d="M 58.416951,64.125821 30.24609,102.50131"
         id="use2812"
         inkscape:tile-x0="73.594296"
         inkscape:tile-y0="75.678931" />
      <path
         style="fill:#000000;stroke:#d22730;stroke-width:2;stroke-linecap:butt;stroke-linejoin:miter;stroke-miterlimit:4;stroke-dasharray:none;stroke-opacity:1"
         d="M 66.932791,90.780266 21.730263,75.846862"
         id="use2814"
         inkscape:tile-x0="73.594296"
         inkscape:tile-y0="75.678931" />
      <circle
         style="fill:#000000;stroke:#d22730;stroke-width:2;stroke-linecap:round;stroke-linejoin:round;stroke-miterlimit:4;stroke-dasharray:none"
         id="path2871"
         cx="30.435528"
         cy="63.98819"
         r="4.1947694"
         inkscape:transform-center-x="13.896002"
         inkscape:transform-center-y="-19.325379"
         inkscape:tile-cx="73.811495"
         inkscape:tile-cy="92.941142"
         inkscape:tile-w="8.0841123"
         inkscape:tile-h="8.0841123"
         inkscape:tile-x0="59.692026"
         inkscape:tile-y0="74.884278" />
      <circle
         style="fill:#000000;stroke:#d22730;stroke-width:2;stroke-linecap:round;stroke-linejoin:round;stroke-miterlimit:4;stroke-dasharray:none"
         id="use2953"
         cx="30.435528"
         cy="63.98819"
         r="4.1947694"
         inkscape:transform-center-x="13.896002"
         inkscape:transform-center-y="-19.325379"
         inkscape:tile-x0="59.692026"
         inkscape:tile-y0="74.884278" />
      <circle
         style="fill:#000000;stroke:#d22730;stroke-width:2;stroke-linecap:round;stroke-linejoin:round;stroke-miterlimit:4;stroke-dasharray:none"
         id="use2955"
         cx="79.039101"
         cy="-35.741848"
         r="4.1947694"
         inkscape:transform-center-x="13.896002"
         inkscape:transform-center-y="-19.325379"
         inkscape:tile-x0="59.692026"
         inkscape:tile-y0="74.884278"
         transform="rotate(72)" />
      <circle
         style="fill:#000000;stroke:#d22730;stroke-width:2;stroke-linecap:round;stroke-linejoin:round;stroke-miterlimit:4;stroke-dasharray:none"
         id="use2957"
         cx="-0.79047185"
         cy="-112.78487"
         r="4.1947694"
         inkscape:transform-center-x="13.896002"
         inkscape:transform-center-y="-19.325379"
         inkscape:tile-x0="59.692026"
         inkscape:tile-y0="74.884278"
         transform="rotate(144)" />
      <circle
         style="fill:#000000;stroke:#d22730;stroke-width:2;stroke-linecap:round;stroke-linejoin:round;stroke-miterlimit:4;stroke-dasharray:none"
         id="use2959"
         cx="-98.731438"
         cy="-60.67004"
         r="4.1947694"
         inkscape:transform-center-x="13.896002"
         inkscape:transform-center-y="-19.325379"
         inkscape:tile-x0="59.692026"
         inkscape:tile-y0="74.884278"
         transform="rotate(-144)" />
      <circle
         style="fill:#000000;stroke:#d22730;stroke-width:2;stroke-linecap:round;stroke-linejoin:round;stroke-miterlimit:4;stroke-dasharray:none"
         id="use2961"
         cx="-79.432709"
         cy="48.581722"
         r="4.1947694"
         inkscape:transform-center-x="13.896002"
         inkscape:transform-center-y="-19.325379"
         inkscape:tile-x0="59.692026"
         inkscape:tile-y0="74.884278"
         transform="rotate(-72)" />
      <path
         sodipodi:type="star"
         style="fill:#000000;stroke:#d22730;stroke-width:8.47812;stroke-linecap:round;stroke-linejoin:round;stroke-miterlimit:4;stroke-dasharray:none"
         id="path3003"
         inkscape:flatsided="false"
         sodipodi:sides="7"
         sodipodi:cx="189.12956"
         sodipodi:cy="267.40268"
         sodipodi:r1="24.792688"
         sodipodi:r2="16.153341"
         sodipodi:arg1="1.0829114"
         sodipodi:arg2="2.4792813"
         inkscape:rounded="0"
         inkscape:randomized="0"
         d="m 200.75135,289.30271 -24.35988,-11.96668 2.86202,12.80738 -5.83221,-26.50642 -8.22876,10.22288 17.08723,-21.08629 -13.12312,-0.0596 27.13963,0.21225 -8.1355,-10.29726 16.75534,21.35096 2.97833,-12.78083 -6.24607,26.41196 11.8494,-5.64017 -24.54406,11.58421 z"
         transform="matrix(0.2359015,0,0,0.2359015,-22.885683,12.766168)"
         inkscape:transform-center-x="22.550399"
         inkscape:transform-center-y="-7.7065088"
         inkscape:tile-cx="73.811487"
         inkscape:tile-cy="92.941148"
         inkscape:tile-w="9.5447082"
         inkscape:tile-h="9.4075529"
         inkscape:tile-x0="52.684412"
         inkscape:tile-y0="82.647818" />
      <path
         sodipodi:type="star"
         style="fill:#000000;stroke:#d22730;stroke-width:8.47812;stroke-linecap:round;stroke-linejoin:round;stroke-miterlimit:4;stroke-dasharray:none"
         id="use3132"
         inkscape:flatsided="false"
         sodipodi:sides="7"
         sodipodi:cx="189.12956"
         sodipodi:cy="267.40268"
         sodipodi:r1="24.792688"
         sodipodi:r2="16.153341"
         sodipodi:arg1="1.0829114"
         sodipodi:arg2="2.4792813"
         inkscape:rounded="0"
         inkscape:randomized="0"
         d="m 200.75135,289.30271 -24.35988,-11.96668 2.86202,12.80738 -5.83221,-26.50642 -8.22876,10.22288 17.08723,-21.08629 -13.12312,-0.0596 27.13963,0.21225 -8.1355,-10.29726 16.75534,21.35096 2.97833,-12.78083 -6.24607,26.41196 11.8494,-5.64017 -24.54406,11.58421 z"
         transform="matrix(0.2359015,0,0,0.2359015,-22.885683,12.766168)"
         inkscape:transform-center-x="22.550399"
         inkscape:transform-center-y="-7.7065088"
         inkscape:tile-x0="52.684412"
         inkscape:tile-y0="82.647818" />
      <path
         sodipodi:type="star"
         style="fill:#000000;stroke:#d22730;stroke-width:8.47812;stroke-linecap:round;stroke-linejoin:round;stroke-miterlimit:4;stroke-dasharray:none"
         id="use3134"
         inkscape:flatsided="false"
         sodipodi:sides="7"
         sodipodi:cx="189.12956"
         sodipodi:cy="267.40268"
         sodipodi:r1="24.792688"
         sodipodi:r2="16.153341"
         sodipodi:arg1="1.0829114"
         sodipodi:arg2="2.4792813"
         inkscape:rounded="0"
         inkscape:randomized="0"
         d="m 200.75135,289.30271 -24.35988,-11.96668 2.86202,12.80738 -5.83221,-26.50642 -8.22876,10.22288 17.08723,-21.08629 -13.12312,-0.0596 27.13963,0.21225 -8.1355,-10.29726 16.75534,21.35096 2.97833,-12.78083 -6.24607,26.41196 11.8494,-5.64017 -24.54406,11.58421 z"
         transform="matrix(0.07289757,0.22435566,-0.22435566,0.07289757,90.654822,-2.4141298)"
         inkscape:transform-center-x="22.550399"
         inkscape:transform-center-y="-7.7065088"
         inkscape:tile-x0="52.684412"
         inkscape:tile-y0="82.647818" />
      <path
         sodipodi:type="star"
         style="fill:#000000;stroke:#d22730;stroke-width:8.47812;stroke-linecap:round;stroke-linejoin:round;stroke-miterlimit:4;stroke-dasharray:none"
         id="use3136"
         inkscape:flatsided="false"
         sodipodi:sides="7"
         sodipodi:cx="189.12956"
         sodipodi:cy="267.40268"
         sodipodi:r1="24.792688"
         sodipodi:r2="16.153341"
         sodipodi:arg1="1.0829114"
         sodipodi:arg2="2.4792813"
         inkscape:rounded="0"
         inkscape:randomized="0"
         d="m 200.75135,289.30271 -24.35988,-11.96668 2.86202,12.80738 -5.83221,-26.50642 -8.22876,10.22288 17.08723,-21.08629 -13.12312,-0.0596 27.13963,0.21225 -8.1355,-10.29726 16.75534,21.35096 2.97833,-12.78083 -6.24607,26.41196 11.8494,-5.64017 -24.54406,11.58421 z"
         transform="matrix(-0.19084832,0.13865942,-0.13865942,-0.19084832,140.17809,100.87834)"
         inkscape:transform-center-x="22.550399"
         inkscape:transform-center-y="-7.7065088"
         inkscape:tile-x0="52.684412"
         inkscape:tile-y0="82.647818" />
      <path
         sodipodi:type="star"
         style="fill:#000000;stroke:#d22730;stroke-width:8.47812;stroke-linecap:round;stroke-linejoin:round;stroke-miterlimit:4;stroke-dasharray:none"
         id="use3138"
         inkscape:flatsided="false"
         sodipodi:sides="7"
         sodipodi:cx="189.12956"
         sodipodi:cy="267.40268"
         sodipodi:r1="24.792688"
         sodipodi:r2="16.153341"
         sodipodi:arg1="1.0829114"
         sodipodi:arg2="2.4792813"
         inkscape:rounded="0"
         inkscape:randomized="0"
         d="m 200.75135,289.30271 -24.35988,-11.96668 2.86202,12.80738 -5.83221,-26.50642 -8.22876,10.22288 17.08723,-21.08629 -13.12312,-0.0596 27.13963,0.21225 -8.1355,-10.29726 16.75534,21.35096 2.97833,-12.78083 -6.24607,26.41196 11.8494,-5.64017 -24.54406,11.58421 z"
         transform="matrix(-0.19084832,-0.13865942,0.13865942,-0.19084832,57.244647,179.89689)"
         inkscape:transform-center-x="22.550399"
         inkscape:transform-center-y="-7.7065088"
         inkscape:tile-x0="52.684412"
         inkscape:tile-y0="82.647818" />
      <path
         sodipodi:type="star"
         style="fill:#000000;stroke:#d22730;stroke-width:8.47812;stroke-linecap:round;stroke-linejoin:round;stroke-miterlimit:4;stroke-dasharray:none"
         id="use3140"
         inkscape:flatsided="false"
         sodipodi:sides="7"
         sodipodi:cx="189.12956"
         sodipodi:cy="267.40268"
         sodipodi:r1="24.792688"
         sodipodi:r2="16.153341"
         sodipodi:arg1="1.0829114"
         sodipodi:arg2="2.4792813"
         inkscape:rounded="0"
         inkscape:randomized="0"
         d="m 200.75135,289.30271 -24.35988,-11.96668 2.86202,12.80738 -5.83221,-26.50642 -8.22876,10.22288 17.08723,-21.08629 -13.12312,-0.0596 27.13963,0.21225 -8.1355,-10.29726 16.75534,21.35096 2.97833,-12.78083 -6.24607,26.41196 11.8494,-5.64017 -24.54406,11.58421 z"
         transform="matrix(0.07289757,-0.22435566,0.22435566,0.07289757,-43.534307,125.44057)"
         inkscape:transform-center-x="22.550399"
         inkscape:transform-center-y="-7.7065088"
         inkscape:tile-x0="52.684412"
         inkscape:tile-y0="82.647818" />
    </g>
    <g
       id="g11097"
       style="fill:none;stroke:#44d62c"
       transform="rotate(-153.05722,119.46803,69.176701)">
      <ellipse
         style="fill:none;stroke:#44d62c;stroke-width:2;stroke-linecap:butt;stroke-linejoin:miter;stroke-miterlimit:4;stroke-dasharray:none"
         id="path10048"
         cx="104.61169"
         cy="118.88087"
         rx="20.390572"
         ry="10.356693"
         inkscape:tile-cx="104.61168"
         inkscape:tile-cy="118.88086"
         inkscape:tile-w="42.781141"
         inkscape:tile-h="22.713385"
         inkscape:tile-x0="83.221111"
         inkscape:tile-y0="107.52417" />
      <use
         x="0"
         y="0"
         inkscape:tiled-clone-of="#path10048"
         xlink:href="#path10048"
         id="use10236"
         style="fill:none;stroke:#44d62c"
         width="100%"
         height="100%" />
      <use
         x="0"
         y="0"
         inkscape:tiled-clone-of="#path10048"
         xlink:href="#path10048"
         transform="matrix(0.96592583,0.25881905,-0.31058285,1.159111,49.043142,-45.990747)"
         id="use10238"
         style="fill:none;stroke:#44d62c"
         width="100%"
         height="100%" />
      <use
         x="0"
         y="0"
         inkscape:tiled-clone-of="#path10048"
         xlink:href="#path10048"
         transform="matrix(0.8660254,0.5,-0.7,1.2124356,114.34437,-77.560364)"
         id="use10240"
         style="fill:none;stroke:#44d62c"
         width="100%"
         height="100%" />
      <use
         x="0"
         y="0"
         inkscape:tiled-clone-of="#path10048"
         xlink:href="#path10048"
         transform="matrix(0.70710678,0.70710678,-1.1313708,1.1313708,190.80708,-89.589109)"
         id="use10242"
         style="fill:none;stroke:#44d62c"
         width="100%"
         height="100%" />
      <use
         x="0"
         y="0"
         inkscape:tiled-clone-of="#path10048"
         xlink:href="#path10048"
         transform="matrix(0.5,0.8660254,-1.5588457,0.9,271.84768,-78.708288)"
         id="use10244"
         style="fill:none;stroke:#44d62c"
         width="100%"
         height="100%" />
      <use
         x="0"
         y="0"
         inkscape:tiled-clone-of="#path10048"
         xlink:href="#path10048"
         transform="matrix(0.25881905,0.96592583,-1.9318517,0.51763809,349.97752,-43.703526)"
         id="use10246"
         style="fill:none;stroke:#44d62c"
         width="100%"
         height="100%" />
    </g>
    <path
       sodipodi:type="spiral"
       style="fill:#44d62c;fill-rule:evenodd;stroke:#000000"
       id="path10967"
       sodipodi:cx="953.08893"
       sodipodi:cy="244.6154"
       sodipodi:expansion="1"
       sodipodi:revolution="12.64"
       sodipodi:radius="160.41156"
       sodipodi:argument="-18.163822"
       sodipodi:t0="0.086775899"
       d="m 956.88962,258.00634 c -7.89882,3.53354 -17.02711,-0.99058 -20.24377,-8.72397 -3.98153,-9.57226 1.51928,-20.45613 10.90984,-24.16219 11.24196,-4.43673 23.88987,2.04649 28.0806,13.09571 4.89633,12.90957 -2.57272,27.32664 -15.28157,31.99902 -14.57588,5.35878 -30.76549,-3.09831 -35.91744,-17.46744 -5.82322,-16.24133 3.62342,-34.2058 19.65331,-39.83586 17.9062,-6.28906 37.6472,4.14821 43.75427,21.83918 6.75596,19.57064 -4.67273,41.08942 -24.02504,47.67269 -21.23477,7.22364 -44.53229,-5.19707 -51.59111,-26.21091 -7.69195,-22.89865 5.72124,-47.97566 28.39677,-55.50953 24.56236,-8.16075 51.41945,6.2453 59.42792,30.58264 8.63,26.2259 -6.76922,54.86356 -32.76848,63.34637 -27.88932,9.09948 -58.30795,-7.29312 -67.26478,-34.95438 -9.56927,-29.55265 7.81693,-61.75257 37.14024,-71.1832 31.2159,-10.03929 65.19742,8.34067 75.10162,39.32611 10.5095,32.87907 -8.8644,68.64238 -41.51198,79.02004 -34.54218,10.97988 -72.08751,-9.38803 -82.93845,-43.69785 -11.4504,-36.20525 9.91165,-75.53276 45.88371,-86.85687 37.86828,-11.92103 78.97812,10.43524 90.77532,48.06958 12.3918,39.53127 -10.9588,82.42359 -50.25547,94.6937 -41.19422,12.86262 -85.86914,-11.48233 -98.61213,-52.4413 -13.33354,-42.85715 12.00585,-89.31476 54.62718,-102.53054 44.52004,-13.80454 92.76042,12.52934 106.44892,56.81304 14.2756,46.18292 -13.0528,96.20618 -58.99887,110.36737 -47.84578,14.74671 -99.65198,-13.57629 -114.2858,-61.18477 -15.21787,-49.50862 14.09975,-103.09782 63.37065,-118.20421 51.17144,-15.6891 106.54372,14.62318 122.12262,65.55651 16.1604,52.83425 -15.1466,109.98963 -67.74237,126.04104 -54.49705,16.63165 -113.4356,-15.67003 -129.95946,-69.92824 -17.10299,-56.15983 16.19344,-116.8816 72.1141,-133.87788 57.82261,-17.57435 120.32763,16.71684 137.79633,74.29997 18.0457,59.48537 -17.2403,123.77369 -76.48587,141.71472 -61.14812,18.51717 -127.21976,-17.76362 -145.63313,-78.67171 -18.98862,-62.81086 18.287,-130.66586 80.85757,-149.55155 64.47361,-19.46008 134.11203,18.81038 153.46993,83.04344 19.9316,66.13634 -19.3337,137.55814 -85.22926,157.38839 -67.79906,20.40308 -141.0043,-19.85711 -161.30681,-87.41518 -20.87461,-69.46177 20.38047,-144.45048 89.60104,-165.22522 71.12449,-21.346157 147.89663,20.90383 169.14363,91.78691 21.8177,72.7872 -21.4272,151.34289 -93.97276,173.06206 -74.4499,22.28929 -154.78912,-21.95052 -176.98048,-96.15864 -22.76089,-76.1126 22.47387,-158.23536 98.34451,-180.8989 77.77529,-23.232486 161.68163,22.99721 184.81733,100.53038 23.7041,79.43798 -23.5206,165.12786 -102.71626,188.73573 C 913.90507,416.47633 826.4316,368.25672 802.35159,287.39849 777.70423,204.63514 826.9188,115.37806 909.43957,90.825921 923.315,86.697607 937.74638,84.466829 952.22039,84.206194"
       transform="matrix(0.26458333,0,0,0.26458333,-236.2525,23.919157)" />
    <g
       id="g3304"
       transform="translate(-41.697834,4.066951)">
      <path
         sodipodi:type="star"
         style="fill:none;stroke:#4d4dff;stroke-width:7.55906;stroke-linecap:round;stroke-linejoin:round;stroke-miterlimit:4;stroke-dasharray:none"
         id="path2167"
         inkscape:flatsided="false"
         sodipodi:sides="7"
         sodipodi:cx="132.4044"
         sodipodi:cy="99.298912"
         sodipodi:r1="113.33576"
         sodipodi:r2="56.667881"
         sodipodi:arg1="0.92371532"
         sodipodi:arg2="1.3725143"
         inkscape:rounded="0"
         inkscape:randomized="0"
         d="m 200.73001,189.7235 -57.16287,-34.86703 -39.25921,54.24036 -8.380318,-66.43097 -66.884543,3.12423 46.71278,-47.97103 -44.144448,-50.34452 66.630201,6.612076 11.837318,-65.902814 36.37372,56.216151 58.90534,-31.834945 -21.27291,63.488318 61.61644,26.205284 -62.90061,22.95249 z"
         transform="matrix(0.26458333,0,0,0.26458333,28.525231,-4.379189)"
         inkscape:transform-center-x="-1.3144197"
         inkscape:transform-center-y="-0.17425372"
         inkscape:tile-cx="63.557227"
         inkscape:tile-cy="21.893647"
         inkscape:tile-w="59.323891"
         inkscape:tile-h="60.449573"
         inkscape:tile-x0="35.209689"
         inkscape:tile-y0="-8.5053914" />
      <path
         sodipodi:type="star"
         style="fill:none;stroke:#4d4dff;stroke-width:7.55906;stroke-linecap:round;stroke-linejoin:round;stroke-miterlimit:4;stroke-dasharray:none"
         id="use3188"
         inkscape:flatsided="false"
         sodipodi:sides="7"
         sodipodi:cx="132.4044"
         sodipodi:cy="99.298912"
         sodipodi:r1="113.33576"
         sodipodi:r2="56.667881"
         sodipodi:arg1="0.92371532"
         sodipodi:arg2="1.3725143"
         inkscape:rounded="0"
         inkscape:randomized="0"
         d="m 200.73001,189.7235 -57.16287,-34.86703 -39.25921,54.24036 -8.380318,-66.43097 -66.884543,3.12423 46.71278,-47.97103 -44.144448,-50.34452 66.630201,6.612076 11.837318,-65.902814 36.37372,56.216151 58.90534,-31.834945 -21.27291,63.488318 61.61644,26.205284 -62.90061,22.95249 z"
         transform="matrix(0.26458333,0,0,0.26458333,28.525231,-4.379189)"
         inkscape:transform-center-x="-1.3144197"
         inkscape:transform-center-y="-0.17425372"
         inkscape:tile-x0="35.209689"
         inkscape:tile-y0="-8.5053914" />
      <path
         sodipodi:type="star"
         style="fill:none;stroke:#4d4dff;stroke-width:9.44882;stroke-linecap:round;stroke-linejoin:round;stroke-miterlimit:4;stroke-dasharray:none"
         id="use3190"
         inkscape:flatsided="false"
         sodipodi:sides="7"
         sodipodi:cx="132.4044"
         sodipodi:cy="99.298912"
         sodipodi:r1="113.33576"
         sodipodi:r2="56.667881"
         sodipodi:arg1="0.92371532"
         sodipodi:arg2="1.3725143"
         inkscape:rounded="0"
         inkscape:randomized="0"
         d="m 200.73001,189.7235 -57.16287,-34.86703 -39.25921,54.24036 -8.380318,-66.43097 -66.884543,3.12423 46.71278,-47.97103 -44.144448,-50.34452 66.630201,6.612076 11.837318,-65.902814 36.37372,56.216151 58.90534,-31.834945 -21.27291,63.488318 61.61644,26.205284 -62.90061,22.95249 z"
         transform="matrix(0.0654086,0.20130696,-0.20130696,0.0654086,74.886403,-11.255282)"
         inkscape:transform-center-x="-1.3144197"
         inkscape:transform-center-y="-0.17425372"
         inkscape:tile-x0="35.209689"
         inkscape:tile-y0="-8.5053914" />
      <path
         sodipodi:type="star"
         style="fill:none;stroke:#4d4dff;stroke-width:12.5984;stroke-linecap:round;stroke-linejoin:round;stroke-miterlimit:4;stroke-dasharray:none"
         id="use3192"
         inkscape:flatsided="false"
         sodipodi:sides="7"
         sodipodi:cx="132.4044"
         sodipodi:cy="99.298912"
         sodipodi:r1="113.33576"
         sodipodi:r2="56.667881"
         sodipodi:arg1="0.92371532"
         sodipodi:arg2="1.3725143"
         inkscape:rounded="0"
         inkscape:randomized="0"
         d="m 200.73001,189.7235 -57.16287,-34.86703 -39.25921,54.24036 -8.380318,-66.43097 -66.884543,3.12423 46.71278,-47.97103 -44.144448,-50.34452 66.630201,6.612076 11.837318,-65.902814 36.37372,56.216151 58.90534,-31.834945 -21.27291,63.488318 61.61644,26.205284 -62.90061,22.95249 z"
         transform="matrix(-0.12843145,0.09331091,-0.09331091,-0.12843145,89.827786,22.291975)"
         inkscape:transform-center-x="-1.3144197"
         inkscape:transform-center-y="-0.17425372"
         inkscape:tile-x0="35.209689"
         inkscape:tile-y0="-8.5053914" />
      <path
         sodipodi:type="star"
         style="fill:none;stroke:#4d4dff;stroke-width:18.8976;stroke-linecap:round;stroke-linejoin:round;stroke-miterlimit:4;stroke-dasharray:none"
         id="use3194"
         inkscape:flatsided="false"
         sodipodi:sides="7"
         sodipodi:cx="132.4044"
         sodipodi:cy="99.298912"
         sodipodi:r1="113.33576"
         sodipodi:r2="56.667881"
         sodipodi:arg1="0.92371532"
         sodipodi:arg2="1.3725143"
         inkscape:rounded="0"
         inkscape:randomized="0"
         d="m 200.73001,189.7235 -57.16287,-34.86703 -39.25921,54.24036 -8.380318,-66.43097 -66.884543,3.12423 46.71278,-47.97103 -44.144448,-50.34452 66.630201,6.612076 11.837318,-65.902814 36.37372,56.216151 58.90534,-31.834945 -21.27291,63.488318 61.61644,26.205284 -62.90061,22.95249 z"
         transform="matrix(-0.08562096,-0.06220727,0.06220727,-0.08562096,68.716704,38.632231)"
         inkscape:transform-center-x="-1.3144197"
         inkscape:transform-center-y="-0.17425372"
         inkscape:tile-x0="35.209689"
         inkscape:tile-y0="-8.5053914" />
      <path
         sodipodi:type="star"
         style="fill:none;stroke:#4d4dff;stroke-width:37.7953;stroke-linecap:round;stroke-linejoin:round;stroke-miterlimit:4;stroke-dasharray:none"
         id="use3196"
         inkscape:flatsided="false"
         sodipodi:sides="7"
         sodipodi:cx="132.4044"
         sodipodi:cy="99.298912"
         sodipodi:r1="113.33576"
         sodipodi:r2="56.667881"
         sodipodi:arg1="0.92371532"
         sodipodi:arg2="1.3725143"
         inkscape:rounded="0"
         inkscape:randomized="0"
         d="m 200.73001,189.7235 -57.16287,-34.86703 -39.25921,54.24036 -8.380318,-66.43097 -66.884543,3.12423 46.71278,-47.97103 -44.144448,-50.34452 66.630201,6.612076 11.837318,-65.902814 36.37372,56.216151 58.90534,-31.834945 -21.27291,63.488318 61.61644,26.205284 -62.90061,22.95249 z"
         transform="matrix(0.01635215,-0.05032674,0.05032674,0.01635215,56.39474,26.933378)"
         inkscape:transform-center-x="-1.3144197"
         inkscape:transform-center-y="-0.17425372"
         inkscape:tile-x0="35.209689"
         inkscape:tile-y0="-8.5053914" />
    </g>
    <g
       id="g11833"
       transform="translate(31.640796,-92.896301)"
       style="fill:#db3eb1">
      <circle
         style="fill:#db3eb1;stroke:none;stroke-width:1.51892;stroke-linecap:butt;stroke-linejoin:miter;stroke-miterlimit:4;stroke-dasharray:none"
         id="path10688"
         cx="22.687618"
         cy="170.74222"
         inkscape:transform-center-x="20.297951"
         inkscape:tile-cx="43.40143"
         inkscape:tile-cy="171.79562"
         inkscape:tile-w="34.210615"
         inkscape:tile-h="34.210615"
         inkscape:tile-x0="9.1908145"
         inkscape:tile-y0="154.69031"
         inkscape:transform-center-y="-4.9288151e-05"
         r="12.231221" />
      <circle
         style="fill:#db3eb1;stroke:none;stroke-width:1.51892;stroke-linecap:butt;stroke-linejoin:miter;stroke-miterlimit:4;stroke-dasharray:none"
         id="use10772"
         cx="139.9955"
         cy="72.84742"
         inkscape:transform-center-x="20.297856"
         inkscape:tile-x0="9.1908145"
         inkscape:tile-y0="154.69031"
         transform="rotate(51.429)"
         inkscape:transform-center-y="0.00013718946"
         r="12.231221" />
      <circle
         style="fill:#db3eb1;stroke:none;stroke-width:1.51892;stroke-linecap:butt;stroke-linejoin:miter;stroke-miterlimit:4;stroke-dasharray:none"
         id="use10774"
         cx="136.59718"
         cy="-79.903954"
         inkscape:transform-center-x="20.297909"
         inkscape:tile-x0="9.1908145"
         inkscape:tile-y0="154.69031"
         transform="rotate(102.858)"
         inkscape:transform-center-y="0.00011881445"
         r="12.231221" />
      <circle
         style="fill:#db3eb1;stroke:none;stroke-width:1.51892;stroke-linecap:butt;stroke-linejoin:miter;stroke-miterlimit:4;stroke-dasharray:none"
         id="use10776"
         cx="15.051806"
         cy="-172.48488"
         inkscape:transform-center-x="20.297974"
         inkscape:tile-x0="9.1908145"
         inkscape:tile-y0="154.69031"
         transform="rotate(154.287)"
         inkscape:transform-center-y="-0.00010812219"
         r="12.231221" />
      <circle
         style="fill:#db3eb1;stroke:none;stroke-width:1.51892;stroke-linecap:butt;stroke-linejoin:miter;stroke-miterlimit:4;stroke-dasharray:none"
         id="use10778"
         cx="-133.11307"
         cy="-135.17924"
         inkscape:transform-center-x="20.297786"
         inkscape:tile-x0="9.1908145"
         inkscape:tile-y0="154.69031"
         transform="rotate(-154.284)"
         inkscape:transform-center-y="-2.9599427e-05"
         r="12.231221" />
      <circle
         style="fill:#db3eb1;stroke:none;stroke-width:1.51892;stroke-linecap:butt;stroke-linejoin:miter;stroke-miterlimit:4;stroke-dasharray:none"
         id="use10780"
         cx="-196.32442"
         cy="3.9206886"
         inkscape:transform-center-x="20.297942"
         inkscape:tile-x0="9.1908145"
         inkscape:tile-y0="154.69031"
         transform="rotate(-102.855)"
         inkscape:transform-center-y="3.7572866e-05"
         r="12.231221" />
      <circle
         style="fill:#db3eb1;stroke:none;stroke-width:1.51892;stroke-linecap:butt;stroke-linejoin:miter;stroke-miterlimit:4;stroke-dasharray:none"
         id="use10770"
         cx="22.687618"
         cy="170.74222"
         inkscape:transform-center-x="20.297951"
         inkscape:tile-x0="9.1908145"
         inkscape:tile-y0="154.69031"
         inkscape:transform-center-y="-4.9288151e-05"
         r="12.231221" />
      <circle
         style="fill:#db3eb1;stroke:none;stroke-width:1.51892;stroke-linecap:butt;stroke-linejoin:miter;stroke-miterlimit:4;stroke-dasharray:none"
         id="use10782"
         cx="-126.98215"
         cy="140.06819"
         inkscape:transform-center-x="20.297964"
         inkscape:tile-x0="9.1908145"
         inkscape:tile-y0="154.69031"
         transform="rotate(-51.426)"
         inkscape:transform-center-y="-0.00016802931"
         r="12.231221" />
    </g>
    <g
       id="g3804"
       style="stroke:#ffad00"
       transform="translate(-54.101208,-3.4919581)">
      <path
         sodipodi:type="spiral"
         style="fill:none;fill-rule:evenodd;stroke:#ffad00;stroke-width:7.55906;stroke-linecap:butt;stroke-linejoin:miter;stroke-miterlimit:4;stroke-dasharray:none"
         id="path2192"
         sodipodi:cx="464.61057"
         sodipodi:cy="159.39352"
         sodipodi:expansion="1"
         sodipodi:revolution="3.1361797"
         sodipodi:radius="129.01083"
         sodipodi:argument="-17.907461"
         sodipodi:t0="0.086775884"
         d="m 454.73052,164.65787 c -8.71537,-5.3681 -6.47988,-17.96054 -0.22027,-24.22049 10.91198,-10.91259 28.94576,-7.04706 38.13256,4.01985 13.33322,16.0619 7.67413,40.08092 -8.25997,52.04463 -21.10573,15.84669 -51.27307,8.33003 -65.95671,-12.50009 -18.40413,-26.10797 -9.00151,-62.49337 16.74021,-79.86878 31.08998,-20.985438 73.72981,-9.682187 93.78086,20.98033 23.58106,36.06071 10.36868,84.9764 -25.22046,107.69293 -41.0245,26.18593 -96.22978,11.05909 -121.605,-29.46057 -28.79709,-45.98376 -11.75222,-107.487969 33.70069,-135.517079 50.93988,-31.412716 118.74966,-12.44734 149.42916,37.940819 34.03164,55.89373 13.14394,130.01397 -42.18094,163.34122 -26.07917,15.70988 -57.54472,21.31806 -87.48722,15.98579"
         transform="matrix(0.26458333,0,0,0.26458333,12.145159,-14.581061)"
         inkscape:transform-center-x="-5.341797"
         inkscape:transform-center-y="1.4612573"
         inkscape:tile-cx="120.29505"
         inkscape:tile-cy="43.460277"
         inkscape:tile-w="56.827358"
         inkscape:tile-h="62.323428"
         inkscape:tile-x0="97.223153"
         inkscape:tile-y0="13.759674" />
      <path
         sodipodi:type="spiral"
         style="fill:none;fill-rule:evenodd;stroke:#ffad00;stroke-width:7.55906;stroke-linecap:butt;stroke-linejoin:miter;stroke-miterlimit:4;stroke-dasharray:none"
         id="use2710"
         sodipodi:cx="464.61057"
         sodipodi:cy="159.39352"
         sodipodi:expansion="1"
         sodipodi:revolution="3.1361797"
         sodipodi:radius="129.01083"
         sodipodi:argument="-17.907461"
         sodipodi:t0="0.086775884"
         d="m 454.73052,164.65787 c -8.71537,-5.3681 -6.47988,-17.96054 -0.22027,-24.22049 10.91198,-10.91259 28.94576,-7.04706 38.13256,4.01985 13.33322,16.0619 7.67413,40.08092 -8.25997,52.04463 -21.10573,15.84669 -51.27307,8.33003 -65.95671,-12.50009 -18.40413,-26.10797 -9.00151,-62.49337 16.74021,-79.86878 31.08998,-20.985438 73.72981,-9.682187 93.78086,20.98033 23.58106,36.06071 10.36868,84.9764 -25.22046,107.69293 -41.0245,26.18593 -96.22978,11.05909 -121.605,-29.46057 -28.79709,-45.98376 -11.75222,-107.487969 33.70069,-135.517079 50.93988,-31.412716 118.74966,-12.44734 149.42916,37.940819 34.03164,55.89373 13.14394,130.01397 -42.18094,163.34122 -26.07917,15.70988 -57.54472,21.31806 -87.48722,15.98579"
         transform="matrix(0.26458333,0,0,0.26458333,12.145159,-14.581061)"
         inkscape:transform-center-x="-5.341797"
         inkscape:transform-center-y="1.4612573"
         inkscape:tile-x0="97.223153"
         inkscape:tile-y0="13.759674" />
      <path
         sodipodi:type="spiral"
         style="fill:none;fill-rule:evenodd;stroke:#ffad00;stroke-width:7.55906;stroke-linecap:butt;stroke-linejoin:miter;stroke-miterlimit:4;stroke-dasharray:none"
         id="use2712"
         sodipodi:cx="464.61057"
         sodipodi:cy="159.39352"
         sodipodi:expansion="1"
         sodipodi:revolution="3.1361797"
         sodipodi:radius="129.01083"
         sodipodi:argument="-17.907461"
         sodipodi:t0="0.086775884"
         d="m 454.73052,164.65787 c -8.71537,-5.3681 -6.47988,-17.96054 -0.22027,-24.22049 10.91198,-10.91259 28.94576,-7.04706 38.13256,4.01985 13.33322,16.0619 7.67413,40.08092 -8.25997,52.04463 -21.10573,15.84669 -51.27307,8.33003 -65.95671,-12.50009 -18.40413,-26.10797 -9.00151,-62.49337 16.74021,-79.86878 31.08998,-20.985438 73.72981,-9.682187 93.78086,20.98033 23.58106,36.06071 10.36868,84.9764 -25.22046,107.69293 -41.0245,26.18593 -96.22978,11.05909 -121.605,-29.46057 -28.79709,-45.98376 -11.75222,-107.487969 33.70069,-135.517079 50.93988,-31.412716 118.74966,-12.44734 149.42916,37.940819 34.03164,55.89373 13.14394,130.01397 -42.18094,163.34122 -26.07917,15.70988 -57.54472,21.31806 -87.48722,15.98579"
         transform="matrix(0.08176075,0.2516337,-0.2516337,0.08176075,136.60017,-98.95814)"
         inkscape:transform-center-x="-5.341797"
         inkscape:transform-center-y="1.4612573"
         inkscape:tile-x0="97.223153"
         inkscape:tile-y0="13.759674" />
      <path
         sodipodi:type="spiral"
         style="fill:none;fill-rule:evenodd;stroke:#ffad00;stroke-width:7.55906;stroke-linecap:butt;stroke-linejoin:miter;stroke-miterlimit:4;stroke-dasharray:none"
         id="use2714"
         sodipodi:cx="464.61057"
         sodipodi:cy="159.39352"
         sodipodi:expansion="1"
         sodipodi:revolution="3.1361797"
         sodipodi:radius="129.01083"
         sodipodi:argument="-17.907461"
         sodipodi:t0="0.086775884"
         d="m 454.73052,164.65787 c -8.71537,-5.3681 -6.47988,-17.96054 -0.22027,-24.22049 10.91198,-10.91259 28.94576,-7.04706 38.13256,4.01985 13.33322,16.0619 7.67413,40.08092 -8.25997,52.04463 -21.10573,15.84669 -51.27307,8.33003 -65.95671,-12.50009 -18.40413,-26.10797 -9.00151,-62.49337 16.74021,-79.86878 31.08998,-20.985438 73.72981,-9.682187 93.78086,20.98033 23.58106,36.06071 10.36868,84.9764 -25.22046,107.69293 -41.0245,26.18593 -96.22978,11.05909 -121.605,-29.46057 -28.79709,-45.98376 -11.75222,-107.487969 33.70069,-135.517079 50.93988,-31.412716 118.74966,-12.44734 149.42916,37.940819 34.03164,55.89373 13.14394,130.01397 -42.18094,163.34122 -26.07917,15.70988 -57.54472,21.31806 -87.48722,15.98579"
         transform="matrix(-0.21405241,0.15551818,-0.15551818,-0.21405241,255.30626,-6.6683382)"
         inkscape:transform-center-x="-5.341797"
         inkscape:transform-center-y="1.4612573"
         inkscape:tile-x0="97.223153"
         inkscape:tile-y0="13.759674" />
      <path
         sodipodi:type="spiral"
         style="fill:none;fill-rule:evenodd;stroke:#ffad00;stroke-width:7.55906;stroke-linecap:butt;stroke-linejoin:miter;stroke-miterlimit:4;stroke-dasharray:none"
         id="use2716"
         sodipodi:cx="464.61057"
         sodipodi:cy="159.39352"
         sodipodi:expansion="1"
         sodipodi:revolution="3.1361797"
         sodipodi:radius="129.01083"
         sodipodi:argument="-17.907461"
         sodipodi:t0="0.086775884"
         d="m 454.73052,164.65787 c -8.71537,-5.3681 -6.47988,-17.96054 -0.22027,-24.22049 10.91198,-10.91259 28.94576,-7.04706 38.13256,4.01985 13.33322,16.0619 7.67413,40.08092 -8.25997,52.04463 -21.10573,15.84669 -51.27307,8.33003 -65.95671,-12.50009 -18.40413,-26.10797 -9.00151,-62.49337 16.74021,-79.86878 31.08998,-20.985438 73.72981,-9.682187 93.78086,20.98033 23.58106,36.06071 10.36868,84.9764 -25.22046,107.69293 -41.0245,26.18593 -96.22978,11.05909 -121.605,-29.46057 -28.79709,-45.98376 -11.75222,-107.487969 33.70069,-135.517079 50.93988,-31.412716 118.74966,-12.44734 149.42916,37.940819 34.03164,55.89373 13.14394,130.01397 -42.18094,163.34122 -26.07917,15.70988 -57.54472,21.31806 -87.48722,15.98579"
         transform="matrix(-0.21405241,-0.15551818,0.15551818,-0.21405241,204.21564,134.74698)"
         inkscape:transform-center-x="-5.341797"
         inkscape:transform-center-y="1.4612573"
         inkscape:tile-x0="97.223153"
         inkscape:tile-y0="13.759674" />
      <path
         sodipodi:type="spiral"
         style="fill:none;fill-rule:evenodd;stroke:#ffad00;stroke-width:7.55906;stroke-linecap:butt;stroke-linejoin:miter;stroke-miterlimit:4;stroke-dasharray:none"
         id="use2718"
         sodipodi:cx="464.61057"
         sodipodi:cy="159.39352"
         sodipodi:expansion="1"
         sodipodi:revolution="3.1361797"
         sodipodi:radius="129.01083"
         sodipodi:argument="-17.907461"
         sodipodi:t0="0.086775884"
         d="m 454.73052,164.65787 c -8.71537,-5.3681 -6.47988,-17.96054 -0.22027,-24.22049 10.91198,-10.91259 28.94576,-7.04706 38.13256,4.01985 13.33322,16.0619 7.67413,40.08092 -8.25997,52.04463 -21.10573,15.84669 -51.27307,8.33003 -65.95671,-12.50009 -18.40413,-26.10797 -9.00151,-62.49337 16.74021,-79.86878 31.08998,-20.985438 73.72981,-9.682187 93.78086,20.98033 23.58106,36.06071 10.36868,84.9764 -25.22046,107.69293 -41.0245,26.18593 -96.22978,11.05909 -121.605,-29.46057 -28.79709,-45.98376 -11.75222,-107.487969 33.70069,-135.517079 50.93988,-31.412716 118.74966,-12.44734 149.42916,37.940819 34.03164,55.89373 13.14394,130.01397 -42.18094,163.34122 -26.07917,15.70988 -57.54472,21.31806 -87.48722,15.98579"
         transform="matrix(0.08176075,-0.2516337,0.2516337,0.08176075,53.933815,129.85664)"
         inkscape:transform-center-x="-5.341797"
         inkscape:transform-center-y="1.4612573"
         inkscape:tile-x0="97.223153"
         inkscape:tile-y0="13.759674" />
    </g>
  </g>
</svg>
